<mxfile host="app.diagrams.net" agent="Mozilla/5.0 (Windows NT 10.0; Win64; x64) AppleWebKit/537.36 (KHTML, like Gecko) Chrome/138.0.0.0 Safari/537.36" version="28.0.5">
  <diagram name="Pagina-1" id="AjR6Tb-IoWu9hcl_Ucn6">
    <mxGraphModel dx="906" dy="458" grid="1" gridSize="10" guides="1" tooltips="1" connect="1" arrows="1" fold="1" page="1" pageScale="1" pageWidth="2339" pageHeight="3300" math="0" shadow="0">
      <root>
        <mxCell id="0" />
        <mxCell id="1" parent="0" />
        <mxCell id="cwaugbciKwd2bRIjYYjd-21" value="JmtRoot" style="text;html=1;align=center;verticalAlign=middle;whiteSpace=wrap;rounded=0;fontFamily=Times New Roman;fontSize=17;" parent="1" vertex="1">
          <mxGeometry x="410" y="29" width="60" height="20" as="geometry" />
        </mxCell>
        <mxCell id="3CA-7fgf6rY5qHI0OHNV-35" value="" style="endArrow=classic;html=1;rounded=0;exitX=0;exitY=0.5;exitDx=0;exitDy=0;fontColor=#FF0000;labelBackgroundColor=#FF0000;fillColor=#f8cecc;strokeColor=#FF0000;" parent="1" edge="1">
          <mxGeometry width="50" height="50" relative="1" as="geometry">
            <mxPoint x="206" y="130.00000000000006" as="sourcePoint" />
            <mxPoint x="166" y="110" as="targetPoint" />
            <Array as="points">
              <mxPoint x="186" y="130" />
              <mxPoint x="186" y="110" />
            </Array>
          </mxGeometry>
        </mxCell>
        <mxCell id="3CA-7fgf6rY5qHI0OHNV-36" value="&lt;font style=&quot;color: rgb(255, 0, 0);&quot;&gt;h&lt;sub&gt;default&lt;/sub&gt;&lt;/font&gt;" style="text;html=1;align=center;verticalAlign=middle;whiteSpace=wrap;rounded=0;fontSize=11;" parent="1" vertex="1">
          <mxGeometry x="116" y="93" width="60" height="30" as="geometry" />
        </mxCell>
        <mxCell id="3CA-7fgf6rY5qHI0OHNV-37" value="" style="group" parent="1" vertex="1" connectable="0">
          <mxGeometry x="210" y="50" width="470" height="90" as="geometry" />
        </mxCell>
        <mxCell id="cwaugbciKwd2bRIjYYjd-20" value="" style="group;strokeWidth=2;" parent="3CA-7fgf6rY5qHI0OHNV-37" vertex="1" connectable="0">
          <mxGeometry x="70" width="320" height="40" as="geometry" />
        </mxCell>
        <mxCell id="cwaugbciKwd2bRIjYYjd-1" value="" style="rounded=0;whiteSpace=wrap;html=1;strokeWidth=2;" parent="cwaugbciKwd2bRIjYYjd-20" vertex="1">
          <mxGeometry width="20" height="40" as="geometry" />
        </mxCell>
        <mxCell id="cwaugbciKwd2bRIjYYjd-5" value="" style="rounded=0;whiteSpace=wrap;html=1;strokeWidth=2;" parent="cwaugbciKwd2bRIjYYjd-20" vertex="1">
          <mxGeometry x="20" width="20" height="40" as="geometry" />
        </mxCell>
        <mxCell id="cwaugbciKwd2bRIjYYjd-6" value="" style="rounded=0;whiteSpace=wrap;html=1;strokeWidth=2;" parent="cwaugbciKwd2bRIjYYjd-20" vertex="1">
          <mxGeometry x="40" width="20" height="40" as="geometry" />
        </mxCell>
        <mxCell id="cwaugbciKwd2bRIjYYjd-7" value="" style="rounded=0;whiteSpace=wrap;html=1;strokeWidth=2;" parent="cwaugbciKwd2bRIjYYjd-20" vertex="1">
          <mxGeometry x="60" width="20" height="40" as="geometry" />
        </mxCell>
        <mxCell id="cwaugbciKwd2bRIjYYjd-8" value="" style="rounded=0;whiteSpace=wrap;html=1;strokeWidth=2;" parent="cwaugbciKwd2bRIjYYjd-20" vertex="1">
          <mxGeometry x="80" width="20" height="40" as="geometry" />
        </mxCell>
        <mxCell id="cwaugbciKwd2bRIjYYjd-9" value="" style="rounded=0;whiteSpace=wrap;html=1;strokeWidth=2;" parent="cwaugbciKwd2bRIjYYjd-20" vertex="1">
          <mxGeometry x="100" width="20" height="40" as="geometry" />
        </mxCell>
        <mxCell id="cwaugbciKwd2bRIjYYjd-10" value="" style="rounded=0;whiteSpace=wrap;html=1;strokeWidth=2;" parent="cwaugbciKwd2bRIjYYjd-20" vertex="1">
          <mxGeometry x="120" width="20" height="40" as="geometry" />
        </mxCell>
        <mxCell id="cwaugbciKwd2bRIjYYjd-11" value="" style="rounded=0;whiteSpace=wrap;html=1;strokeWidth=2;" parent="cwaugbciKwd2bRIjYYjd-20" vertex="1">
          <mxGeometry x="140" width="20" height="40" as="geometry" />
        </mxCell>
        <mxCell id="cwaugbciKwd2bRIjYYjd-12" value="" style="rounded=0;whiteSpace=wrap;html=1;strokeWidth=2;" parent="cwaugbciKwd2bRIjYYjd-20" vertex="1">
          <mxGeometry x="160" width="20" height="40" as="geometry" />
        </mxCell>
        <mxCell id="cwaugbciKwd2bRIjYYjd-13" value="" style="rounded=0;whiteSpace=wrap;html=1;strokeWidth=2;" parent="cwaugbciKwd2bRIjYYjd-20" vertex="1">
          <mxGeometry x="180" width="20" height="40" as="geometry" />
        </mxCell>
        <mxCell id="cwaugbciKwd2bRIjYYjd-14" value="" style="rounded=0;whiteSpace=wrap;html=1;strokeWidth=2;" parent="cwaugbciKwd2bRIjYYjd-20" vertex="1">
          <mxGeometry x="200" width="20" height="40" as="geometry" />
        </mxCell>
        <mxCell id="cwaugbciKwd2bRIjYYjd-15" value="" style="rounded=0;whiteSpace=wrap;html=1;strokeWidth=2;" parent="cwaugbciKwd2bRIjYYjd-20" vertex="1">
          <mxGeometry x="220" width="20" height="40" as="geometry" />
        </mxCell>
        <mxCell id="cwaugbciKwd2bRIjYYjd-16" value="" style="rounded=0;whiteSpace=wrap;html=1;strokeWidth=2;" parent="cwaugbciKwd2bRIjYYjd-20" vertex="1">
          <mxGeometry x="240" width="20" height="40" as="geometry" />
        </mxCell>
        <mxCell id="cwaugbciKwd2bRIjYYjd-17" value="" style="rounded=0;whiteSpace=wrap;html=1;strokeWidth=2;" parent="cwaugbciKwd2bRIjYYjd-20" vertex="1">
          <mxGeometry x="260" width="20" height="40" as="geometry" />
        </mxCell>
        <mxCell id="cwaugbciKwd2bRIjYYjd-18" value="" style="rounded=0;whiteSpace=wrap;html=1;strokeWidth=2;" parent="cwaugbciKwd2bRIjYYjd-20" vertex="1">
          <mxGeometry x="280" width="20" height="40" as="geometry" />
        </mxCell>
        <mxCell id="cwaugbciKwd2bRIjYYjd-19" value="" style="rounded=0;whiteSpace=wrap;html=1;strokeWidth=2;" parent="cwaugbciKwd2bRIjYYjd-20" vertex="1">
          <mxGeometry x="300" width="20" height="40" as="geometry" />
        </mxCell>
        <mxCell id="3CA-7fgf6rY5qHI0OHNV-2" value="" style="endArrow=none;html=1;rounded=0;exitX=0.5;exitY=0;exitDx=0;exitDy=0;entryX=0.5;entryY=1;entryDx=0;entryDy=0;" parent="3CA-7fgf6rY5qHI0OHNV-37" source="3CA-7fgf6rY5qHI0OHNV-3" target="cwaugbciKwd2bRIjYYjd-1" edge="1">
          <mxGeometry width="50" height="50" relative="1" as="geometry">
            <mxPoint x="20" y="70" as="sourcePoint" />
            <mxPoint x="90" y="50" as="targetPoint" />
          </mxGeometry>
        </mxCell>
        <mxCell id="3CA-7fgf6rY5qHI0OHNV-3" value="" style="rounded=0;whiteSpace=wrap;html=1;fillColor=#f8cecc;strokeColor=#b85450;" parent="3CA-7fgf6rY5qHI0OHNV-37" vertex="1">
          <mxGeometry y="70" width="20" height="20" as="geometry" />
        </mxCell>
        <mxCell id="3CA-7fgf6rY5qHI0OHNV-5" value="" style="rounded=0;whiteSpace=wrap;html=1;" parent="3CA-7fgf6rY5qHI0OHNV-37" vertex="1">
          <mxGeometry x="30" y="70" width="20" height="20" as="geometry" />
        </mxCell>
        <mxCell id="3CA-7fgf6rY5qHI0OHNV-6" value="" style="endArrow=none;html=1;rounded=0;entryX=0.5;entryY=1;entryDx=0;entryDy=0;exitX=0.5;exitY=0;exitDx=0;exitDy=0;" parent="3CA-7fgf6rY5qHI0OHNV-37" source="3CA-7fgf6rY5qHI0OHNV-5" target="cwaugbciKwd2bRIjYYjd-5" edge="1">
          <mxGeometry width="50" height="50" relative="1" as="geometry">
            <mxPoint x="170" y="170" as="sourcePoint" />
            <mxPoint x="220" y="120" as="targetPoint" />
          </mxGeometry>
        </mxCell>
        <mxCell id="3CA-7fgf6rY5qHI0OHNV-7" value="" style="rounded=0;whiteSpace=wrap;html=1;" parent="3CA-7fgf6rY5qHI0OHNV-37" vertex="1">
          <mxGeometry x="60" y="70" width="20" height="20" as="geometry" />
        </mxCell>
        <mxCell id="3CA-7fgf6rY5qHI0OHNV-8" value="" style="endArrow=none;html=1;rounded=0;entryX=0.5;entryY=1;entryDx=0;entryDy=0;exitX=0.5;exitY=0;exitDx=0;exitDy=0;" parent="3CA-7fgf6rY5qHI0OHNV-37" source="3CA-7fgf6rY5qHI0OHNV-7" target="cwaugbciKwd2bRIjYYjd-6" edge="1">
          <mxGeometry width="50" height="50" relative="1" as="geometry">
            <mxPoint x="170" y="170" as="sourcePoint" />
            <mxPoint x="220" y="120" as="targetPoint" />
          </mxGeometry>
        </mxCell>
        <mxCell id="3CA-7fgf6rY5qHI0OHNV-10" value="" style="endArrow=none;html=1;rounded=0;entryX=0.5;entryY=1;entryDx=0;entryDy=0;" parent="3CA-7fgf6rY5qHI0OHNV-37" target="cwaugbciKwd2bRIjYYjd-7" edge="1">
          <mxGeometry width="50" height="50" relative="1" as="geometry">
            <mxPoint x="80" y="130" as="sourcePoint" />
            <mxPoint x="220" y="120" as="targetPoint" />
            <Array as="points">
              <mxPoint x="100" y="70" />
            </Array>
          </mxGeometry>
        </mxCell>
        <mxCell id="3CA-7fgf6rY5qHI0OHNV-11" value="" style="rounded=0;whiteSpace=wrap;html=1;" parent="3CA-7fgf6rY5qHI0OHNV-37" vertex="1">
          <mxGeometry x="120" y="70" width="20" height="20" as="geometry" />
        </mxCell>
        <mxCell id="3CA-7fgf6rY5qHI0OHNV-12" value="" style="endArrow=none;html=1;rounded=0;entryX=0.5;entryY=1;entryDx=0;entryDy=0;exitX=0.5;exitY=0;exitDx=0;exitDy=0;" parent="3CA-7fgf6rY5qHI0OHNV-37" source="3CA-7fgf6rY5qHI0OHNV-11" target="cwaugbciKwd2bRIjYYjd-8" edge="1">
          <mxGeometry width="50" height="50" relative="1" as="geometry">
            <mxPoint x="170" y="170" as="sourcePoint" />
            <mxPoint x="220" y="120" as="targetPoint" />
          </mxGeometry>
        </mxCell>
        <mxCell id="3CA-7fgf6rY5qHI0OHNV-13" value="" style="rounded=0;whiteSpace=wrap;html=1;" parent="3CA-7fgf6rY5qHI0OHNV-37" vertex="1">
          <mxGeometry x="150" y="70" width="20" height="20" as="geometry" />
        </mxCell>
        <mxCell id="3CA-7fgf6rY5qHI0OHNV-14" value="" style="endArrow=none;html=1;rounded=0;entryX=0.5;entryY=1;entryDx=0;entryDy=0;exitX=0.5;exitY=0;exitDx=0;exitDy=0;" parent="3CA-7fgf6rY5qHI0OHNV-37" source="3CA-7fgf6rY5qHI0OHNV-13" target="cwaugbciKwd2bRIjYYjd-9" edge="1">
          <mxGeometry width="50" height="50" relative="1" as="geometry">
            <mxPoint x="170" y="170" as="sourcePoint" />
            <mxPoint x="220" y="120" as="targetPoint" />
          </mxGeometry>
        </mxCell>
        <mxCell id="3CA-7fgf6rY5qHI0OHNV-15" value="" style="rounded=0;whiteSpace=wrap;html=1;" parent="3CA-7fgf6rY5qHI0OHNV-37" vertex="1">
          <mxGeometry x="180" y="70" width="20" height="20" as="geometry" />
        </mxCell>
        <mxCell id="3CA-7fgf6rY5qHI0OHNV-16" value="" style="endArrow=none;html=1;rounded=0;entryX=0.5;entryY=1;entryDx=0;entryDy=0;exitX=0.5;exitY=0;exitDx=0;exitDy=0;" parent="3CA-7fgf6rY5qHI0OHNV-37" source="3CA-7fgf6rY5qHI0OHNV-15" target="cwaugbciKwd2bRIjYYjd-10" edge="1">
          <mxGeometry width="50" height="50" relative="1" as="geometry">
            <mxPoint x="170" y="170" as="sourcePoint" />
            <mxPoint x="220" y="120" as="targetPoint" />
          </mxGeometry>
        </mxCell>
        <mxCell id="3CA-7fgf6rY5qHI0OHNV-17" value="" style="rounded=0;whiteSpace=wrap;html=1;" parent="3CA-7fgf6rY5qHI0OHNV-37" vertex="1">
          <mxGeometry x="210" y="70" width="20" height="20" as="geometry" />
        </mxCell>
        <mxCell id="3CA-7fgf6rY5qHI0OHNV-18" value="" style="endArrow=none;html=1;rounded=0;entryX=0.5;entryY=1;entryDx=0;entryDy=0;exitX=0.5;exitY=0;exitDx=0;exitDy=0;" parent="3CA-7fgf6rY5qHI0OHNV-37" source="3CA-7fgf6rY5qHI0OHNV-17" target="cwaugbciKwd2bRIjYYjd-11" edge="1">
          <mxGeometry width="50" height="50" relative="1" as="geometry">
            <mxPoint x="170" y="170" as="sourcePoint" />
            <mxPoint x="220" y="120" as="targetPoint" />
          </mxGeometry>
        </mxCell>
        <mxCell id="3CA-7fgf6rY5qHI0OHNV-19" value="" style="rounded=0;whiteSpace=wrap;html=1;" parent="3CA-7fgf6rY5qHI0OHNV-37" vertex="1">
          <mxGeometry x="240" y="70" width="20" height="20" as="geometry" />
        </mxCell>
        <mxCell id="3CA-7fgf6rY5qHI0OHNV-20" value="" style="endArrow=none;html=1;rounded=0;entryX=0.5;entryY=1;entryDx=0;entryDy=0;exitX=0.5;exitY=0;exitDx=0;exitDy=0;" parent="3CA-7fgf6rY5qHI0OHNV-37" source="3CA-7fgf6rY5qHI0OHNV-19" target="cwaugbciKwd2bRIjYYjd-12" edge="1">
          <mxGeometry width="50" height="50" relative="1" as="geometry">
            <mxPoint x="170" y="170" as="sourcePoint" />
            <mxPoint x="220" y="120" as="targetPoint" />
          </mxGeometry>
        </mxCell>
        <mxCell id="3CA-7fgf6rY5qHI0OHNV-21" value="" style="rounded=0;whiteSpace=wrap;html=1;" parent="3CA-7fgf6rY5qHI0OHNV-37" vertex="1">
          <mxGeometry x="270" y="70" width="20" height="20" as="geometry" />
        </mxCell>
        <mxCell id="3CA-7fgf6rY5qHI0OHNV-22" value="" style="endArrow=none;html=1;rounded=0;entryX=0.5;entryY=1;entryDx=0;entryDy=0;exitX=0.5;exitY=0;exitDx=0;exitDy=0;" parent="3CA-7fgf6rY5qHI0OHNV-37" source="3CA-7fgf6rY5qHI0OHNV-21" target="cwaugbciKwd2bRIjYYjd-13" edge="1">
          <mxGeometry width="50" height="50" relative="1" as="geometry">
            <mxPoint x="170" y="170" as="sourcePoint" />
            <mxPoint x="220" y="120" as="targetPoint" />
          </mxGeometry>
        </mxCell>
        <mxCell id="3CA-7fgf6rY5qHI0OHNV-23" value="" style="rounded=0;whiteSpace=wrap;html=1;" parent="3CA-7fgf6rY5qHI0OHNV-37" vertex="1">
          <mxGeometry x="300" y="70" width="20" height="20" as="geometry" />
        </mxCell>
        <mxCell id="3CA-7fgf6rY5qHI0OHNV-24" value="" style="rounded=0;whiteSpace=wrap;html=1;" parent="3CA-7fgf6rY5qHI0OHNV-37" vertex="1">
          <mxGeometry x="330" y="70" width="20" height="20" as="geometry" />
        </mxCell>
        <mxCell id="3CA-7fgf6rY5qHI0OHNV-25" value="" style="rounded=0;whiteSpace=wrap;html=1;" parent="3CA-7fgf6rY5qHI0OHNV-37" vertex="1">
          <mxGeometry x="360" y="70" width="20" height="20" as="geometry" />
        </mxCell>
        <mxCell id="3CA-7fgf6rY5qHI0OHNV-26" value="" style="endArrow=none;html=1;rounded=0;entryX=0.5;entryY=1;entryDx=0;entryDy=0;exitX=0.5;exitY=0;exitDx=0;exitDy=0;" parent="3CA-7fgf6rY5qHI0OHNV-37" source="3CA-7fgf6rY5qHI0OHNV-23" target="cwaugbciKwd2bRIjYYjd-14" edge="1">
          <mxGeometry width="50" height="50" relative="1" as="geometry">
            <mxPoint x="170" y="170" as="sourcePoint" />
            <mxPoint x="220" y="120" as="targetPoint" />
          </mxGeometry>
        </mxCell>
        <mxCell id="3CA-7fgf6rY5qHI0OHNV-27" value="" style="rounded=0;whiteSpace=wrap;html=1;" parent="3CA-7fgf6rY5qHI0OHNV-37" vertex="1">
          <mxGeometry x="390" y="70" width="20" height="20" as="geometry" />
        </mxCell>
        <mxCell id="3CA-7fgf6rY5qHI0OHNV-28" value="" style="endArrow=none;html=1;rounded=0;entryX=0.5;entryY=1;entryDx=0;entryDy=0;exitX=0.5;exitY=0;exitDx=0;exitDy=0;" parent="3CA-7fgf6rY5qHI0OHNV-37" source="3CA-7fgf6rY5qHI0OHNV-24" target="cwaugbciKwd2bRIjYYjd-15" edge="1">
          <mxGeometry width="50" height="50" relative="1" as="geometry">
            <mxPoint x="170" y="170" as="sourcePoint" />
            <mxPoint x="220" y="120" as="targetPoint" />
          </mxGeometry>
        </mxCell>
        <mxCell id="3CA-7fgf6rY5qHI0OHNV-29" value="" style="endArrow=none;html=1;rounded=0;entryX=0.5;entryY=1;entryDx=0;entryDy=0;exitX=0.5;exitY=0;exitDx=0;exitDy=0;" parent="3CA-7fgf6rY5qHI0OHNV-37" source="3CA-7fgf6rY5qHI0OHNV-25" target="cwaugbciKwd2bRIjYYjd-16" edge="1">
          <mxGeometry width="50" height="50" relative="1" as="geometry">
            <mxPoint x="170" y="170" as="sourcePoint" />
            <mxPoint x="220" y="120" as="targetPoint" />
          </mxGeometry>
        </mxCell>
        <mxCell id="3CA-7fgf6rY5qHI0OHNV-30" value="" style="endArrow=none;html=1;rounded=0;entryX=0.5;entryY=1;entryDx=0;entryDy=0;exitX=0.5;exitY=0;exitDx=0;exitDy=0;" parent="3CA-7fgf6rY5qHI0OHNV-37" source="3CA-7fgf6rY5qHI0OHNV-27" target="cwaugbciKwd2bRIjYYjd-17" edge="1">
          <mxGeometry width="50" height="50" relative="1" as="geometry">
            <mxPoint x="170" y="170" as="sourcePoint" />
            <mxPoint x="220" y="120" as="targetPoint" />
          </mxGeometry>
        </mxCell>
        <mxCell id="3CA-7fgf6rY5qHI0OHNV-32" value="" style="rounded=0;whiteSpace=wrap;html=1;" parent="3CA-7fgf6rY5qHI0OHNV-37" vertex="1">
          <mxGeometry x="420" y="70" width="20" height="20" as="geometry" />
        </mxCell>
        <mxCell id="3CA-7fgf6rY5qHI0OHNV-33" value="" style="endArrow=none;html=1;rounded=0;entryX=0.5;entryY=1;entryDx=0;entryDy=0;exitX=0.5;exitY=0;exitDx=0;exitDy=0;" parent="3CA-7fgf6rY5qHI0OHNV-37" source="3CA-7fgf6rY5qHI0OHNV-32" target="cwaugbciKwd2bRIjYYjd-18" edge="1">
          <mxGeometry width="50" height="50" relative="1" as="geometry">
            <mxPoint x="260" y="170" as="sourcePoint" />
            <mxPoint x="310" y="120" as="targetPoint" />
          </mxGeometry>
        </mxCell>
        <mxCell id="3CA-7fgf6rY5qHI0OHNV-186" value="" style="group" parent="1" vertex="1" connectable="0">
          <mxGeometry x="250" y="270" width="280" height="50" as="geometry" />
        </mxCell>
        <mxCell id="3CA-7fgf6rY5qHI0OHNV-137" value="" style="group;strokeWidth=2;" parent="3CA-7fgf6rY5qHI0OHNV-186" vertex="1" connectable="0">
          <mxGeometry x="41.702127659574465" width="190.63829787234042" height="22.22222222222222" as="geometry" />
        </mxCell>
        <mxCell id="3CA-7fgf6rY5qHI0OHNV-138" value="" style="rounded=0;whiteSpace=wrap;html=1;strokeWidth=2;" parent="3CA-7fgf6rY5qHI0OHNV-137" vertex="1">
          <mxGeometry width="11.914893617021276" height="22.22222222222222" as="geometry" />
        </mxCell>
        <mxCell id="3CA-7fgf6rY5qHI0OHNV-139" value="" style="rounded=0;whiteSpace=wrap;html=1;strokeWidth=2;" parent="3CA-7fgf6rY5qHI0OHNV-137" vertex="1">
          <mxGeometry x="11.914893617021276" width="11.914893617021276" height="22.22222222222222" as="geometry" />
        </mxCell>
        <mxCell id="3CA-7fgf6rY5qHI0OHNV-140" value="" style="rounded=0;whiteSpace=wrap;html=1;strokeWidth=2;" parent="3CA-7fgf6rY5qHI0OHNV-137" vertex="1">
          <mxGeometry x="23.829787234042552" width="11.914893617021276" height="22.22222222222222" as="geometry" />
        </mxCell>
        <mxCell id="3CA-7fgf6rY5qHI0OHNV-141" value="" style="rounded=0;whiteSpace=wrap;html=1;strokeWidth=2;" parent="3CA-7fgf6rY5qHI0OHNV-137" vertex="1">
          <mxGeometry x="35.744680851063826" width="11.914893617021276" height="22.22222222222222" as="geometry" />
        </mxCell>
        <mxCell id="3CA-7fgf6rY5qHI0OHNV-142" value="" style="rounded=0;whiteSpace=wrap;html=1;strokeWidth=2;" parent="3CA-7fgf6rY5qHI0OHNV-137" vertex="1">
          <mxGeometry x="47.659574468085104" width="11.914893617021276" height="22.22222222222222" as="geometry" />
        </mxCell>
        <mxCell id="3CA-7fgf6rY5qHI0OHNV-143" value="" style="rounded=0;whiteSpace=wrap;html=1;strokeWidth=2;" parent="3CA-7fgf6rY5qHI0OHNV-137" vertex="1">
          <mxGeometry x="59.57446808510638" width="11.914893617021276" height="22.22222222222222" as="geometry" />
        </mxCell>
        <mxCell id="3CA-7fgf6rY5qHI0OHNV-144" value="" style="rounded=0;whiteSpace=wrap;html=1;strokeWidth=2;" parent="3CA-7fgf6rY5qHI0OHNV-137" vertex="1">
          <mxGeometry x="71.48936170212765" width="11.914893617021276" height="22.22222222222222" as="geometry" />
        </mxCell>
        <mxCell id="3CA-7fgf6rY5qHI0OHNV-145" value="" style="rounded=0;whiteSpace=wrap;html=1;strokeWidth=2;" parent="3CA-7fgf6rY5qHI0OHNV-137" vertex="1">
          <mxGeometry x="83.40425531914893" width="11.914893617021276" height="22.22222222222222" as="geometry" />
        </mxCell>
        <mxCell id="3CA-7fgf6rY5qHI0OHNV-146" value="" style="rounded=0;whiteSpace=wrap;html=1;strokeWidth=2;" parent="3CA-7fgf6rY5qHI0OHNV-137" vertex="1">
          <mxGeometry x="95.31914893617021" width="11.914893617021276" height="22.22222222222222" as="geometry" />
        </mxCell>
        <mxCell id="3CA-7fgf6rY5qHI0OHNV-147" value="" style="rounded=0;whiteSpace=wrap;html=1;strokeWidth=2;" parent="3CA-7fgf6rY5qHI0OHNV-137" vertex="1">
          <mxGeometry x="107.23404255319149" width="11.914893617021276" height="22.22222222222222" as="geometry" />
        </mxCell>
        <mxCell id="3CA-7fgf6rY5qHI0OHNV-148" value="" style="rounded=0;whiteSpace=wrap;html=1;strokeWidth=2;" parent="3CA-7fgf6rY5qHI0OHNV-137" vertex="1">
          <mxGeometry x="119.14893617021276" width="11.914893617021276" height="22.22222222222222" as="geometry" />
        </mxCell>
        <mxCell id="3CA-7fgf6rY5qHI0OHNV-149" value="" style="rounded=0;whiteSpace=wrap;html=1;strokeWidth=2;" parent="3CA-7fgf6rY5qHI0OHNV-137" vertex="1">
          <mxGeometry x="131.06382978723403" width="11.914893617021276" height="22.22222222222222" as="geometry" />
        </mxCell>
        <mxCell id="3CA-7fgf6rY5qHI0OHNV-150" value="" style="rounded=0;whiteSpace=wrap;html=1;strokeWidth=2;" parent="3CA-7fgf6rY5qHI0OHNV-137" vertex="1">
          <mxGeometry x="142.9787234042553" width="11.914893617021276" height="22.22222222222222" as="geometry" />
        </mxCell>
        <mxCell id="3CA-7fgf6rY5qHI0OHNV-151" value="" style="rounded=0;whiteSpace=wrap;html=1;strokeWidth=2;" parent="3CA-7fgf6rY5qHI0OHNV-137" vertex="1">
          <mxGeometry x="154.89361702127658" width="11.914893617021276" height="22.22222222222222" as="geometry" />
        </mxCell>
        <mxCell id="3CA-7fgf6rY5qHI0OHNV-152" value="" style="rounded=0;whiteSpace=wrap;html=1;strokeWidth=2;" parent="3CA-7fgf6rY5qHI0OHNV-137" vertex="1">
          <mxGeometry x="166.80851063829786" width="11.914893617021276" height="22.22222222222222" as="geometry" />
        </mxCell>
        <mxCell id="3CA-7fgf6rY5qHI0OHNV-153" value="" style="rounded=0;whiteSpace=wrap;html=1;strokeWidth=2;" parent="3CA-7fgf6rY5qHI0OHNV-137" vertex="1">
          <mxGeometry x="178.72340425531914" width="11.914893617021276" height="22.22222222222222" as="geometry" />
        </mxCell>
        <mxCell id="3CA-7fgf6rY5qHI0OHNV-154" value="" style="endArrow=none;html=1;rounded=0;exitX=0.5;exitY=0;exitDx=0;exitDy=0;entryX=0.5;entryY=1;entryDx=0;entryDy=0;" parent="3CA-7fgf6rY5qHI0OHNV-186" source="3CA-7fgf6rY5qHI0OHNV-155" target="3CA-7fgf6rY5qHI0OHNV-138" edge="1">
          <mxGeometry width="50" height="50" relative="1" as="geometry">
            <mxPoint x="11.914893617021276" y="38.88888888888889" as="sourcePoint" />
            <mxPoint x="53.61702127659574" y="27.77777777777778" as="targetPoint" />
          </mxGeometry>
        </mxCell>
        <mxCell id="3CA-7fgf6rY5qHI0OHNV-155" value="" style="rounded=0;whiteSpace=wrap;html=1;" parent="3CA-7fgf6rY5qHI0OHNV-186" vertex="1">
          <mxGeometry y="38.88888888888889" width="11.914893617021276" height="11.11111111111111" as="geometry" />
        </mxCell>
        <mxCell id="3CA-7fgf6rY5qHI0OHNV-156" value="" style="rounded=0;whiteSpace=wrap;html=1;" parent="3CA-7fgf6rY5qHI0OHNV-186" vertex="1">
          <mxGeometry x="17.872340425531913" y="38.88888888888889" width="11.914893617021276" height="11.11111111111111" as="geometry" />
        </mxCell>
        <mxCell id="3CA-7fgf6rY5qHI0OHNV-157" value="" style="endArrow=none;html=1;rounded=0;entryX=0.5;entryY=1;entryDx=0;entryDy=0;exitX=0.5;exitY=0;exitDx=0;exitDy=0;" parent="3CA-7fgf6rY5qHI0OHNV-186" source="3CA-7fgf6rY5qHI0OHNV-156" target="3CA-7fgf6rY5qHI0OHNV-139" edge="1">
          <mxGeometry width="50" height="50" relative="1" as="geometry">
            <mxPoint x="101.27659574468085" y="94.44444444444444" as="sourcePoint" />
            <mxPoint x="131.06382978723403" y="66.66666666666667" as="targetPoint" />
          </mxGeometry>
        </mxCell>
        <mxCell id="3CA-7fgf6rY5qHI0OHNV-158" value="" style="rounded=0;whiteSpace=wrap;html=1;" parent="3CA-7fgf6rY5qHI0OHNV-186" vertex="1">
          <mxGeometry x="35.744680851063826" y="38.88888888888889" width="11.914893617021276" height="11.11111111111111" as="geometry" />
        </mxCell>
        <mxCell id="3CA-7fgf6rY5qHI0OHNV-159" value="" style="endArrow=none;html=1;rounded=0;entryX=0.5;entryY=1;entryDx=0;entryDy=0;exitX=0.5;exitY=0;exitDx=0;exitDy=0;" parent="3CA-7fgf6rY5qHI0OHNV-186" source="3CA-7fgf6rY5qHI0OHNV-158" target="3CA-7fgf6rY5qHI0OHNV-140" edge="1">
          <mxGeometry width="50" height="50" relative="1" as="geometry">
            <mxPoint x="101.27659574468085" y="94.44444444444444" as="sourcePoint" />
            <mxPoint x="131.06382978723403" y="66.66666666666667" as="targetPoint" />
          </mxGeometry>
        </mxCell>
        <mxCell id="3CA-7fgf6rY5qHI0OHNV-162" value="" style="rounded=0;whiteSpace=wrap;html=1;" parent="3CA-7fgf6rY5qHI0OHNV-186" vertex="1">
          <mxGeometry x="71.48936170212765" y="38.88888888888889" width="11.914893617021276" height="11.11111111111111" as="geometry" />
        </mxCell>
        <mxCell id="3CA-7fgf6rY5qHI0OHNV-163" value="" style="endArrow=none;html=1;rounded=0;entryX=0.5;entryY=1;entryDx=0;entryDy=0;exitX=0.5;exitY=0;exitDx=0;exitDy=0;" parent="3CA-7fgf6rY5qHI0OHNV-186" source="3CA-7fgf6rY5qHI0OHNV-162" target="3CA-7fgf6rY5qHI0OHNV-142" edge="1">
          <mxGeometry width="50" height="50" relative="1" as="geometry">
            <mxPoint x="101.27659574468085" y="94.44444444444444" as="sourcePoint" />
            <mxPoint x="131.06382978723403" y="66.66666666666667" as="targetPoint" />
          </mxGeometry>
        </mxCell>
        <mxCell id="3CA-7fgf6rY5qHI0OHNV-164" value="" style="rounded=0;whiteSpace=wrap;html=1;" parent="3CA-7fgf6rY5qHI0OHNV-186" vertex="1">
          <mxGeometry x="89.36170212765957" y="38.88888888888889" width="11.914893617021276" height="11.11111111111111" as="geometry" />
        </mxCell>
        <mxCell id="3CA-7fgf6rY5qHI0OHNV-165" value="" style="endArrow=none;html=1;rounded=0;entryX=0.5;entryY=1;entryDx=0;entryDy=0;exitX=0.5;exitY=0;exitDx=0;exitDy=0;" parent="3CA-7fgf6rY5qHI0OHNV-186" source="3CA-7fgf6rY5qHI0OHNV-164" target="3CA-7fgf6rY5qHI0OHNV-143" edge="1">
          <mxGeometry width="50" height="50" relative="1" as="geometry">
            <mxPoint x="101.27659574468085" y="94.44444444444444" as="sourcePoint" />
            <mxPoint x="131.06382978723403" y="66.66666666666667" as="targetPoint" />
          </mxGeometry>
        </mxCell>
        <mxCell id="3CA-7fgf6rY5qHI0OHNV-166" value="" style="rounded=0;whiteSpace=wrap;html=1;" parent="3CA-7fgf6rY5qHI0OHNV-186" vertex="1">
          <mxGeometry x="107.23404255319149" y="38.88888888888889" width="11.914893617021276" height="11.11111111111111" as="geometry" />
        </mxCell>
        <mxCell id="3CA-7fgf6rY5qHI0OHNV-167" value="" style="endArrow=none;html=1;rounded=0;entryX=0.5;entryY=1;entryDx=0;entryDy=0;exitX=0.5;exitY=0;exitDx=0;exitDy=0;" parent="3CA-7fgf6rY5qHI0OHNV-186" source="3CA-7fgf6rY5qHI0OHNV-166" target="3CA-7fgf6rY5qHI0OHNV-144" edge="1">
          <mxGeometry width="50" height="50" relative="1" as="geometry">
            <mxPoint x="101.27659574468085" y="94.44444444444444" as="sourcePoint" />
            <mxPoint x="131.06382978723403" y="66.66666666666667" as="targetPoint" />
          </mxGeometry>
        </mxCell>
        <mxCell id="3CA-7fgf6rY5qHI0OHNV-168" value="" style="rounded=0;whiteSpace=wrap;html=1;" parent="3CA-7fgf6rY5qHI0OHNV-186" vertex="1">
          <mxGeometry x="125.1063829787234" y="38.88888888888889" width="11.914893617021276" height="11.11111111111111" as="geometry" />
        </mxCell>
        <mxCell id="3CA-7fgf6rY5qHI0OHNV-169" value="" style="endArrow=none;html=1;rounded=0;entryX=0.5;entryY=1;entryDx=0;entryDy=0;exitX=0.5;exitY=0;exitDx=0;exitDy=0;" parent="3CA-7fgf6rY5qHI0OHNV-186" source="3CA-7fgf6rY5qHI0OHNV-168" target="3CA-7fgf6rY5qHI0OHNV-145" edge="1">
          <mxGeometry width="50" height="50" relative="1" as="geometry">
            <mxPoint x="101.27659574468085" y="94.44444444444444" as="sourcePoint" />
            <mxPoint x="131.06382978723403" y="66.66666666666667" as="targetPoint" />
          </mxGeometry>
        </mxCell>
        <mxCell id="3CA-7fgf6rY5qHI0OHNV-170" value="" style="rounded=0;whiteSpace=wrap;html=1;" parent="3CA-7fgf6rY5qHI0OHNV-186" vertex="1">
          <mxGeometry x="142.9787234042553" y="38.88888888888889" width="11.914893617021276" height="11.11111111111111" as="geometry" />
        </mxCell>
        <mxCell id="3CA-7fgf6rY5qHI0OHNV-171" value="" style="endArrow=none;html=1;rounded=0;entryX=0.5;entryY=1;entryDx=0;entryDy=0;exitX=0.5;exitY=0;exitDx=0;exitDy=0;" parent="3CA-7fgf6rY5qHI0OHNV-186" source="3CA-7fgf6rY5qHI0OHNV-170" target="3CA-7fgf6rY5qHI0OHNV-146" edge="1">
          <mxGeometry width="50" height="50" relative="1" as="geometry">
            <mxPoint x="101.27659574468085" y="94.44444444444444" as="sourcePoint" />
            <mxPoint x="131.06382978723403" y="66.66666666666667" as="targetPoint" />
          </mxGeometry>
        </mxCell>
        <mxCell id="3CA-7fgf6rY5qHI0OHNV-172" value="" style="rounded=0;whiteSpace=wrap;html=1;" parent="3CA-7fgf6rY5qHI0OHNV-186" vertex="1">
          <mxGeometry x="160.85106382978722" y="38.88888888888889" width="11.914893617021276" height="11.11111111111111" as="geometry" />
        </mxCell>
        <mxCell id="3CA-7fgf6rY5qHI0OHNV-173" value="" style="endArrow=none;html=1;rounded=0;entryX=0.5;entryY=1;entryDx=0;entryDy=0;exitX=0.5;exitY=0;exitDx=0;exitDy=0;" parent="3CA-7fgf6rY5qHI0OHNV-186" source="3CA-7fgf6rY5qHI0OHNV-172" target="3CA-7fgf6rY5qHI0OHNV-147" edge="1">
          <mxGeometry width="50" height="50" relative="1" as="geometry">
            <mxPoint x="101.27659574468085" y="94.44444444444444" as="sourcePoint" />
            <mxPoint x="131.06382978723403" y="66.66666666666667" as="targetPoint" />
          </mxGeometry>
        </mxCell>
        <mxCell id="3CA-7fgf6rY5qHI0OHNV-174" value="" style="rounded=0;whiteSpace=wrap;html=1;" parent="3CA-7fgf6rY5qHI0OHNV-186" vertex="1">
          <mxGeometry x="178.72340425531914" y="38.88888888888889" width="11.914893617021276" height="11.11111111111111" as="geometry" />
        </mxCell>
        <mxCell id="3CA-7fgf6rY5qHI0OHNV-175" value="" style="rounded=0;whiteSpace=wrap;html=1;" parent="3CA-7fgf6rY5qHI0OHNV-186" vertex="1">
          <mxGeometry x="196.59574468085106" y="38.88888888888889" width="11.914893617021276" height="11.11111111111111" as="geometry" />
        </mxCell>
        <mxCell id="3CA-7fgf6rY5qHI0OHNV-176" value="" style="rounded=0;whiteSpace=wrap;html=1;" parent="3CA-7fgf6rY5qHI0OHNV-186" vertex="1">
          <mxGeometry x="214.46808510638297" y="38.88888888888889" width="11.914893617021276" height="11.11111111111111" as="geometry" />
        </mxCell>
        <mxCell id="3CA-7fgf6rY5qHI0OHNV-177" value="" style="endArrow=none;html=1;rounded=0;entryX=0.5;entryY=1;entryDx=0;entryDy=0;exitX=0.5;exitY=0;exitDx=0;exitDy=0;" parent="3CA-7fgf6rY5qHI0OHNV-186" source="3CA-7fgf6rY5qHI0OHNV-174" target="3CA-7fgf6rY5qHI0OHNV-148" edge="1">
          <mxGeometry width="50" height="50" relative="1" as="geometry">
            <mxPoint x="101.27659574468085" y="94.44444444444444" as="sourcePoint" />
            <mxPoint x="131.06382978723403" y="66.66666666666667" as="targetPoint" />
          </mxGeometry>
        </mxCell>
        <mxCell id="3CA-7fgf6rY5qHI0OHNV-178" value="" style="rounded=0;whiteSpace=wrap;html=1;" parent="3CA-7fgf6rY5qHI0OHNV-186" vertex="1">
          <mxGeometry x="232.3404255319149" y="38.88888888888889" width="11.914893617021276" height="11.11111111111111" as="geometry" />
        </mxCell>
        <mxCell id="3CA-7fgf6rY5qHI0OHNV-179" value="" style="endArrow=none;html=1;rounded=0;entryX=0.5;entryY=1;entryDx=0;entryDy=0;exitX=0.5;exitY=0;exitDx=0;exitDy=0;" parent="3CA-7fgf6rY5qHI0OHNV-186" source="3CA-7fgf6rY5qHI0OHNV-175" target="3CA-7fgf6rY5qHI0OHNV-149" edge="1">
          <mxGeometry width="50" height="50" relative="1" as="geometry">
            <mxPoint x="101.27659574468085" y="94.44444444444444" as="sourcePoint" />
            <mxPoint x="131.06382978723403" y="66.66666666666667" as="targetPoint" />
          </mxGeometry>
        </mxCell>
        <mxCell id="3CA-7fgf6rY5qHI0OHNV-180" value="" style="endArrow=none;html=1;rounded=0;entryX=0.5;entryY=1;entryDx=0;entryDy=0;exitX=0.5;exitY=0;exitDx=0;exitDy=0;" parent="3CA-7fgf6rY5qHI0OHNV-186" source="3CA-7fgf6rY5qHI0OHNV-176" target="3CA-7fgf6rY5qHI0OHNV-150" edge="1">
          <mxGeometry width="50" height="50" relative="1" as="geometry">
            <mxPoint x="101.27659574468085" y="94.44444444444444" as="sourcePoint" />
            <mxPoint x="131.06382978723403" y="66.66666666666667" as="targetPoint" />
          </mxGeometry>
        </mxCell>
        <mxCell id="3CA-7fgf6rY5qHI0OHNV-181" value="" style="endArrow=none;html=1;rounded=0;entryX=0.5;entryY=1;entryDx=0;entryDy=0;exitX=0.5;exitY=0;exitDx=0;exitDy=0;" parent="3CA-7fgf6rY5qHI0OHNV-186" source="3CA-7fgf6rY5qHI0OHNV-178" target="3CA-7fgf6rY5qHI0OHNV-151" edge="1">
          <mxGeometry width="50" height="50" relative="1" as="geometry">
            <mxPoint x="101.27659574468085" y="94.44444444444444" as="sourcePoint" />
            <mxPoint x="131.06382978723403" y="66.66666666666667" as="targetPoint" />
          </mxGeometry>
        </mxCell>
        <mxCell id="3CA-7fgf6rY5qHI0OHNV-182" value="" style="rounded=0;whiteSpace=wrap;html=1;" parent="3CA-7fgf6rY5qHI0OHNV-186" vertex="1">
          <mxGeometry x="268.0851063829787" y="38.88888888888889" width="11.914893617021276" height="11.11111111111111" as="geometry" />
        </mxCell>
        <mxCell id="3CA-7fgf6rY5qHI0OHNV-185" value="" style="endArrow=none;html=1;rounded=0;entryX=0.5;entryY=1;entryDx=0;entryDy=0;exitX=0.5;exitY=0;exitDx=0;exitDy=0;" parent="3CA-7fgf6rY5qHI0OHNV-186" source="3CA-7fgf6rY5qHI0OHNV-182" target="3CA-7fgf6rY5qHI0OHNV-153" edge="1">
          <mxGeometry width="50" height="50" relative="1" as="geometry">
            <mxPoint x="154.89361702127658" y="94.44444444444444" as="sourcePoint" />
            <mxPoint x="184.68085106382978" y="66.66666666666667" as="targetPoint" />
          </mxGeometry>
        </mxCell>
        <mxCell id="3CA-7fgf6rY5qHI0OHNV-161" value="" style="endArrow=none;html=1;rounded=0;entryX=0.5;entryY=1;entryDx=0;entryDy=0;exitX=0.5;exitY=0;exitDx=0;exitDy=0;" parent="1" source="3CA-7fgf6rY5qHI0OHNV-192" target="3CA-7fgf6rY5qHI0OHNV-141" edge="1">
          <mxGeometry width="50" height="50" relative="1" as="geometry">
            <mxPoint x="290" y="350" as="sourcePoint" />
            <mxPoint x="381.063829787234" y="336.6666666666667" as="targetPoint" />
            <Array as="points">
              <mxPoint x="310" y="310" />
            </Array>
          </mxGeometry>
        </mxCell>
        <mxCell id="3CA-7fgf6rY5qHI0OHNV-200" value="&lt;font style=&quot;color: rgb(255, 0, 0);&quot; face=&quot;Times New Roman&quot;&gt;3&lt;/font&gt;" style="text;html=1;align=center;verticalAlign=middle;whiteSpace=wrap;rounded=0;" parent="1" vertex="1">
          <mxGeometry x="278" y="145" width="23" height="24" as="geometry" />
        </mxCell>
        <mxCell id="3CA-7fgf6rY5qHI0OHNV-201" value="&lt;font style=&quot;color: rgb(255, 0, 0);&quot; face=&quot;Times New Roman&quot;&gt;A&lt;/font&gt;" style="text;html=1;align=center;verticalAlign=middle;whiteSpace=wrap;rounded=0;" parent="1" vertex="1">
          <mxGeometry x="369.5" y="238" width="23" height="24" as="geometry" />
        </mxCell>
        <mxCell id="3CA-7fgf6rY5qHI0OHNV-207" value="&lt;font style=&quot;color: rgb(255, 0, 0);&quot; face=&quot;Times New Roman&quot;&gt;E&lt;/font&gt;" style="text;html=1;align=center;verticalAlign=middle;whiteSpace=wrap;rounded=0;" parent="1" vertex="1">
          <mxGeometry x="506" y="328" width="25.5" height="23" as="geometry" />
        </mxCell>
        <mxCell id="3CA-7fgf6rY5qHI0OHNV-184" value="" style="endArrow=none;html=1;rounded=0;entryX=0.5;entryY=1;entryDx=0;entryDy=0;exitX=0.5;exitY=0;exitDx=0;exitDy=0;" parent="1" source="3CA-7fgf6rY5qHI0OHNV-209" target="3CA-7fgf6rY5qHI0OHNV-152" edge="1">
          <mxGeometry width="50" height="50" relative="1" as="geometry">
            <mxPoint x="510" y="360" as="sourcePoint" />
            <mxPoint x="434.6808510638298" y="336.6666666666667" as="targetPoint" />
            <Array as="points">
              <mxPoint x="510" y="310" />
            </Array>
          </mxGeometry>
        </mxCell>
        <mxCell id="3CA-7fgf6rY5qHI0OHNV-209" value="" style="ellipse;whiteSpace=wrap;html=1;strokeWidth=2;" parent="1" vertex="1">
          <mxGeometry x="468.94" y="360" width="90" height="40" as="geometry" />
        </mxCell>
        <mxCell id="3CA-7fgf6rY5qHI0OHNV-210" value="&lt;font face=&quot;Times New Roman&quot;&gt;0x&lt;span style=&quot;&quot;&gt;3AE&lt;/span&gt;&lt;span style=&quot;&quot;&gt;89&lt;/span&gt;, &lt;span style=&quot;&quot;&gt;1&lt;/span&gt;&lt;/font&gt;" style="text;html=1;align=center;verticalAlign=middle;whiteSpace=wrap;rounded=0;labelBackgroundColor=default;" parent="1" vertex="1">
          <mxGeometry x="476.44" y="365" width="75" height="30" as="geometry" />
        </mxCell>
        <mxCell id="3CA-7fgf6rY5qHI0OHNV-34" value="" style="endArrow=none;html=1;rounded=0;entryX=0.5;entryY=1;entryDx=0;entryDy=0;exitX=0.5;exitY=0;exitDx=0;exitDy=0;" parent="1" source="3CA-7fgf6rY5qHI0OHNV-267" target="cwaugbciKwd2bRIjYYjd-19" edge="1">
          <mxGeometry width="50" height="50" relative="1" as="geometry">
            <mxPoint x="738.2978723404256" y="180" as="sourcePoint" />
            <mxPoint x="520" y="170" as="targetPoint" />
            <Array as="points">
              <mxPoint x="690" y="120" />
            </Array>
          </mxGeometry>
        </mxCell>
        <mxCell id="3CA-7fgf6rY5qHI0OHNV-271" value="&lt;font style=&quot;color: rgb(255, 0, 0);&quot; face=&quot;Times New Roman&quot;&gt;F&lt;/font&gt;" style="text;html=1;align=center;verticalAlign=middle;whiteSpace=wrap;rounded=0;" parent="1" vertex="1">
          <mxGeometry x="667.5" y="96.5" width="25.5" height="23" as="geometry" />
        </mxCell>
        <mxCell id="3CA-7fgf6rY5qHI0OHNV-87" value="" style="group;strokeWidth=2;" parent="1" vertex="1" connectable="0">
          <mxGeometry x="182.72340425531914" y="180" width="241.02127659574467" height="22.22222222222222" as="geometry" />
        </mxCell>
        <mxCell id="3CA-7fgf6rY5qHI0OHNV-88" value="" style="rounded=0;whiteSpace=wrap;html=1;strokeWidth=2;fillColor=#FF8000;fontColor=#FF8000;" parent="3CA-7fgf6rY5qHI0OHNV-87" vertex="1">
          <mxGeometry width="15.063829787234042" height="22.22222222222222" as="geometry" />
        </mxCell>
        <mxCell id="3CA-7fgf6rY5qHI0OHNV-89" value="" style="rounded=0;whiteSpace=wrap;html=1;strokeWidth=2;fillColor=#FF8000;fontColor=#FF8000;" parent="3CA-7fgf6rY5qHI0OHNV-87" vertex="1">
          <mxGeometry x="15.063829787234042" width="15.063829787234042" height="22.22222222222222" as="geometry" />
        </mxCell>
        <mxCell id="3CA-7fgf6rY5qHI0OHNV-90" value="" style="rounded=0;whiteSpace=wrap;html=1;strokeWidth=2;fillColor=#FF8000;fontColor=#FF8000;" parent="3CA-7fgf6rY5qHI0OHNV-87" vertex="1">
          <mxGeometry x="30.127659574468083" width="15.063829787234042" height="22.22222222222222" as="geometry" />
        </mxCell>
        <mxCell id="3CA-7fgf6rY5qHI0OHNV-91" value="" style="rounded=0;whiteSpace=wrap;html=1;strokeWidth=2;fillColor=#FF8000;fontColor=#FF8000;" parent="3CA-7fgf6rY5qHI0OHNV-87" vertex="1">
          <mxGeometry x="45.191489361702125" width="15.063829787234042" height="22.22222222222222" as="geometry" />
        </mxCell>
        <mxCell id="3CA-7fgf6rY5qHI0OHNV-92" value="" style="rounded=0;whiteSpace=wrap;html=1;strokeWidth=2;fillColor=#FF8000;fontColor=#FF8000;" parent="3CA-7fgf6rY5qHI0OHNV-87" vertex="1">
          <mxGeometry x="60.25531914893617" width="15.063829787234042" height="22.22222222222222" as="geometry" />
        </mxCell>
        <mxCell id="3CA-7fgf6rY5qHI0OHNV-93" value="" style="rounded=0;whiteSpace=wrap;html=1;strokeWidth=2;fillColor=#FF8000;fontColor=#FF8000;" parent="3CA-7fgf6rY5qHI0OHNV-87" vertex="1">
          <mxGeometry x="75.31914893617021" width="15.063829787234042" height="22.22222222222222" as="geometry" />
        </mxCell>
        <mxCell id="3CA-7fgf6rY5qHI0OHNV-94" value="" style="rounded=0;whiteSpace=wrap;html=1;strokeWidth=2;fillColor=#FF8000;fontColor=#FF8000;" parent="3CA-7fgf6rY5qHI0OHNV-87" vertex="1">
          <mxGeometry x="90.38297872340425" width="15.063829787234042" height="22.22222222222222" as="geometry" />
        </mxCell>
        <mxCell id="3CA-7fgf6rY5qHI0OHNV-95" value="" style="rounded=0;whiteSpace=wrap;html=1;strokeWidth=2;fillColor=#FF8000;fontColor=#FF8000;" parent="3CA-7fgf6rY5qHI0OHNV-87" vertex="1">
          <mxGeometry x="105.44680851063829" width="15.063829787234042" height="22.22222222222222" as="geometry" />
        </mxCell>
        <mxCell id="3CA-7fgf6rY5qHI0OHNV-96" value="" style="rounded=0;whiteSpace=wrap;html=1;strokeWidth=2;fillColor=#FF8000;fontColor=#FF8000;" parent="3CA-7fgf6rY5qHI0OHNV-87" vertex="1">
          <mxGeometry x="120.51063829787233" width="15.063829787234042" height="22.22222222222222" as="geometry" />
        </mxCell>
        <mxCell id="3CA-7fgf6rY5qHI0OHNV-97" value="" style="rounded=0;whiteSpace=wrap;html=1;strokeWidth=2;fillColor=#FF8000;fontColor=#FF8000;" parent="3CA-7fgf6rY5qHI0OHNV-87" vertex="1">
          <mxGeometry x="135.5744680851064" width="15.063829787234042" height="22.22222222222222" as="geometry" />
        </mxCell>
        <mxCell id="3CA-7fgf6rY5qHI0OHNV-98" value="" style="rounded=0;whiteSpace=wrap;html=1;strokeWidth=2;fillColor=#FF8000;fontColor=#FF8000;" parent="3CA-7fgf6rY5qHI0OHNV-87" vertex="1">
          <mxGeometry x="150.63829787234042" width="15.063829787234042" height="22.22222222222222" as="geometry" />
        </mxCell>
        <mxCell id="3CA-7fgf6rY5qHI0OHNV-99" value="" style="rounded=0;whiteSpace=wrap;html=1;strokeWidth=2;fillColor=#FF8000;fontColor=#FF8000;" parent="3CA-7fgf6rY5qHI0OHNV-87" vertex="1">
          <mxGeometry x="165.70212765957447" width="15.063829787234042" height="22.22222222222222" as="geometry" />
        </mxCell>
        <mxCell id="3CA-7fgf6rY5qHI0OHNV-100" value="" style="rounded=0;whiteSpace=wrap;html=1;strokeWidth=2;fillColor=#FF8000;fontColor=#FF8000;" parent="3CA-7fgf6rY5qHI0OHNV-87" vertex="1">
          <mxGeometry x="180.7659574468085" width="15.063829787234042" height="22.22222222222222" as="geometry" />
        </mxCell>
        <mxCell id="3CA-7fgf6rY5qHI0OHNV-101" value="" style="rounded=0;whiteSpace=wrap;html=1;strokeWidth=2;fillColor=#FF8000;fontColor=#FF8000;" parent="3CA-7fgf6rY5qHI0OHNV-87" vertex="1">
          <mxGeometry x="195.82978723404256" width="15.063829787234042" height="22.22222222222222" as="geometry" />
        </mxCell>
        <mxCell id="3CA-7fgf6rY5qHI0OHNV-102" value="" style="rounded=0;whiteSpace=wrap;html=1;strokeWidth=2;fillColor=#FF8000;fontColor=#FF8000;" parent="3CA-7fgf6rY5qHI0OHNV-87" vertex="1">
          <mxGeometry x="210.89361702127658" width="15.063829787234042" height="22.22222222222222" as="geometry" />
        </mxCell>
        <mxCell id="3CA-7fgf6rY5qHI0OHNV-103" value="" style="rounded=0;whiteSpace=wrap;html=1;strokeWidth=2;fillColor=#FF8000;fontColor=#FF8000;" parent="3CA-7fgf6rY5qHI0OHNV-87" vertex="1">
          <mxGeometry x="225.95744680851064" width="15.063829787234042" height="22.22222222222222" as="geometry" />
        </mxCell>
        <mxCell id="3CA-7fgf6rY5qHI0OHNV-106" value="" style="rounded=0;whiteSpace=wrap;html=1;" parent="1" vertex="1">
          <mxGeometry x="152.59574468085106" y="218.88888888888889" width="15.063829787234042" height="11.11111111111111" as="geometry" />
        </mxCell>
        <mxCell id="3CA-7fgf6rY5qHI0OHNV-107" value="" style="endArrow=none;html=1;rounded=0;entryX=0.5;entryY=1;entryDx=0;entryDy=0;exitX=0.5;exitY=0;exitDx=0;exitDy=0;" parent="1" source="3CA-7fgf6rY5qHI0OHNV-106" target="3CA-7fgf6rY5qHI0OHNV-89" edge="1">
          <mxGeometry width="50" height="50" relative="1" as="geometry">
            <mxPoint x="258.04255319148933" y="274.44444444444446" as="sourcePoint" />
            <mxPoint x="295.70212765957444" y="246.66666666666669" as="targetPoint" />
          </mxGeometry>
        </mxCell>
        <mxCell id="3CA-7fgf6rY5qHI0OHNV-108" value="" style="rounded=0;whiteSpace=wrap;html=1;" parent="1" vertex="1">
          <mxGeometry x="175.1914893617021" y="218.88888888888889" width="15.063829787234042" height="11.11111111111111" as="geometry" />
        </mxCell>
        <mxCell id="3CA-7fgf6rY5qHI0OHNV-109" value="" style="endArrow=none;html=1;rounded=0;entryX=0.5;entryY=1;entryDx=0;entryDy=0;exitX=0.5;exitY=0;exitDx=0;exitDy=0;" parent="1" source="3CA-7fgf6rY5qHI0OHNV-108" target="3CA-7fgf6rY5qHI0OHNV-90" edge="1">
          <mxGeometry width="50" height="50" relative="1" as="geometry">
            <mxPoint x="258.04255319148933" y="274.44444444444446" as="sourcePoint" />
            <mxPoint x="295.70212765957444" y="246.66666666666669" as="targetPoint" />
          </mxGeometry>
        </mxCell>
        <mxCell id="3CA-7fgf6rY5qHI0OHNV-110" value="" style="rounded=0;whiteSpace=wrap;html=1;" parent="1" vertex="1">
          <mxGeometry x="197.7872340425532" y="218.88888888888889" width="15.063829787234042" height="11.11111111111111" as="geometry" />
        </mxCell>
        <mxCell id="3CA-7fgf6rY5qHI0OHNV-111" value="" style="endArrow=none;html=1;rounded=0;entryX=0.5;entryY=1;entryDx=0;entryDy=0;exitX=0.5;exitY=0;exitDx=0;exitDy=0;" parent="1" source="3CA-7fgf6rY5qHI0OHNV-110" target="3CA-7fgf6rY5qHI0OHNV-91" edge="1">
          <mxGeometry width="50" height="50" relative="1" as="geometry">
            <mxPoint x="258.04255319148933" y="274.44444444444446" as="sourcePoint" />
            <mxPoint x="295.70212765957444" y="246.66666666666669" as="targetPoint" />
          </mxGeometry>
        </mxCell>
        <mxCell id="3CA-7fgf6rY5qHI0OHNV-112" value="" style="rounded=0;whiteSpace=wrap;html=1;" parent="1" vertex="1">
          <mxGeometry x="220.38297872340425" y="218.88888888888889" width="15.063829787234042" height="11.11111111111111" as="geometry" />
        </mxCell>
        <mxCell id="3CA-7fgf6rY5qHI0OHNV-113" value="" style="endArrow=none;html=1;rounded=0;entryX=0.5;entryY=1;entryDx=0;entryDy=0;exitX=0.5;exitY=0;exitDx=0;exitDy=0;" parent="1" source="3CA-7fgf6rY5qHI0OHNV-112" target="3CA-7fgf6rY5qHI0OHNV-92" edge="1">
          <mxGeometry width="50" height="50" relative="1" as="geometry">
            <mxPoint x="258.04255319148933" y="274.44444444444446" as="sourcePoint" />
            <mxPoint x="295.70212765957444" y="246.66666666666669" as="targetPoint" />
          </mxGeometry>
        </mxCell>
        <mxCell id="3CA-7fgf6rY5qHI0OHNV-114" value="" style="rounded=0;whiteSpace=wrap;html=1;" parent="1" vertex="1">
          <mxGeometry x="242.97872340425533" y="218.88888888888889" width="15.063829787234042" height="11.11111111111111" as="geometry" />
        </mxCell>
        <mxCell id="3CA-7fgf6rY5qHI0OHNV-115" value="" style="endArrow=none;html=1;rounded=0;entryX=0.5;entryY=1;entryDx=0;entryDy=0;exitX=0.5;exitY=0;exitDx=0;exitDy=0;" parent="1" source="3CA-7fgf6rY5qHI0OHNV-114" target="3CA-7fgf6rY5qHI0OHNV-93" edge="1">
          <mxGeometry width="50" height="50" relative="1" as="geometry">
            <mxPoint x="258.04255319148933" y="274.44444444444446" as="sourcePoint" />
            <mxPoint x="295.70212765957444" y="246.66666666666669" as="targetPoint" />
          </mxGeometry>
        </mxCell>
        <mxCell id="3CA-7fgf6rY5qHI0OHNV-116" value="" style="rounded=0;whiteSpace=wrap;html=1;" parent="1" vertex="1">
          <mxGeometry x="265.5744680851064" y="218.88888888888889" width="15.063829787234042" height="11.11111111111111" as="geometry" />
        </mxCell>
        <mxCell id="3CA-7fgf6rY5qHI0OHNV-117" value="" style="endArrow=none;html=1;rounded=0;entryX=0.5;entryY=1;entryDx=0;entryDy=0;exitX=0.5;exitY=0;exitDx=0;exitDy=0;" parent="1" source="3CA-7fgf6rY5qHI0OHNV-116" target="3CA-7fgf6rY5qHI0OHNV-94" edge="1">
          <mxGeometry width="50" height="50" relative="1" as="geometry">
            <mxPoint x="258.04255319148933" y="274.44444444444446" as="sourcePoint" />
            <mxPoint x="295.70212765957444" y="246.66666666666669" as="targetPoint" />
          </mxGeometry>
        </mxCell>
        <mxCell id="3CA-7fgf6rY5qHI0OHNV-118" value="" style="rounded=0;whiteSpace=wrap;html=1;" parent="1" vertex="1">
          <mxGeometry x="288.17021276595744" y="218.88888888888889" width="15.063829787234042" height="11.11111111111111" as="geometry" />
        </mxCell>
        <mxCell id="3CA-7fgf6rY5qHI0OHNV-119" value="" style="endArrow=none;html=1;rounded=0;entryX=0.5;entryY=1;entryDx=0;entryDy=0;exitX=0.5;exitY=0;exitDx=0;exitDy=0;" parent="1" source="3CA-7fgf6rY5qHI0OHNV-118" target="3CA-7fgf6rY5qHI0OHNV-95" edge="1">
          <mxGeometry width="50" height="50" relative="1" as="geometry">
            <mxPoint x="258.04255319148933" y="274.44444444444446" as="sourcePoint" />
            <mxPoint x="295.70212765957444" y="246.66666666666669" as="targetPoint" />
          </mxGeometry>
        </mxCell>
        <mxCell id="3CA-7fgf6rY5qHI0OHNV-120" value="" style="rounded=0;whiteSpace=wrap;html=1;" parent="1" vertex="1">
          <mxGeometry x="310.7659574468085" y="218.88888888888889" width="15.063829787234042" height="11.11111111111111" as="geometry" />
        </mxCell>
        <mxCell id="3CA-7fgf6rY5qHI0OHNV-121" value="" style="endArrow=none;html=1;rounded=0;entryX=0.5;entryY=1;entryDx=0;entryDy=0;exitX=0.5;exitY=0;exitDx=0;exitDy=0;" parent="1" source="3CA-7fgf6rY5qHI0OHNV-120" target="3CA-7fgf6rY5qHI0OHNV-96" edge="1">
          <mxGeometry width="50" height="50" relative="1" as="geometry">
            <mxPoint x="258.04255319148933" y="274.44444444444446" as="sourcePoint" />
            <mxPoint x="295.70212765957444" y="246.66666666666669" as="targetPoint" />
          </mxGeometry>
        </mxCell>
        <mxCell id="3CA-7fgf6rY5qHI0OHNV-122" value="" style="rounded=0;whiteSpace=wrap;html=1;" parent="1" vertex="1">
          <mxGeometry x="333.36170212765956" y="218.88888888888889" width="15.063829787234042" height="11.11111111111111" as="geometry" />
        </mxCell>
        <mxCell id="3CA-7fgf6rY5qHI0OHNV-123" value="" style="endArrow=none;html=1;rounded=0;entryX=0.5;entryY=1;entryDx=0;entryDy=0;exitX=0.5;exitY=0;exitDx=0;exitDy=0;" parent="1" source="3CA-7fgf6rY5qHI0OHNV-122" target="3CA-7fgf6rY5qHI0OHNV-97" edge="1">
          <mxGeometry width="50" height="50" relative="1" as="geometry">
            <mxPoint x="258.04255319148933" y="274.44444444444446" as="sourcePoint" />
            <mxPoint x="295.70212765957444" y="246.66666666666669" as="targetPoint" />
          </mxGeometry>
        </mxCell>
        <mxCell id="3CA-7fgf6rY5qHI0OHNV-125" value="" style="rounded=0;whiteSpace=wrap;html=1;" parent="1" vertex="1">
          <mxGeometry x="378.55319148936167" y="218.88888888888889" width="15.063829787234042" height="11.11111111111111" as="geometry" />
        </mxCell>
        <mxCell id="3CA-7fgf6rY5qHI0OHNV-126" value="" style="rounded=0;whiteSpace=wrap;html=1;" parent="1" vertex="1">
          <mxGeometry x="401.1489361702128" y="218.88888888888889" width="15.063829787234042" height="11.11111111111111" as="geometry" />
        </mxCell>
        <mxCell id="3CA-7fgf6rY5qHI0OHNV-127" value="" style="endArrow=none;html=1;rounded=0;entryX=0.5;entryY=1;entryDx=0;entryDy=0;" parent="1" target="3CA-7fgf6rY5qHI0OHNV-98" edge="1">
          <mxGeometry width="50" height="50" relative="1" as="geometry">
            <mxPoint x="380" y="270" as="sourcePoint" />
            <mxPoint x="295.70212765957444" y="246.66666666666669" as="targetPoint" />
            <Array as="points">
              <mxPoint x="360" y="220" />
            </Array>
          </mxGeometry>
        </mxCell>
        <mxCell id="3CA-7fgf6rY5qHI0OHNV-128" value="" style="rounded=0;whiteSpace=wrap;html=1;" parent="1" vertex="1">
          <mxGeometry x="423.74468085106383" y="218.88888888888889" width="15.063829787234042" height="11.11111111111111" as="geometry" />
        </mxCell>
        <mxCell id="3CA-7fgf6rY5qHI0OHNV-129" value="" style="endArrow=none;html=1;rounded=0;entryX=0.5;entryY=1;entryDx=0;entryDy=0;exitX=0.5;exitY=0;exitDx=0;exitDy=0;" parent="1" source="3CA-7fgf6rY5qHI0OHNV-125" target="3CA-7fgf6rY5qHI0OHNV-99" edge="1">
          <mxGeometry width="50" height="50" relative="1" as="geometry">
            <mxPoint x="258.04255319148933" y="274.44444444444446" as="sourcePoint" />
            <mxPoint x="295.70212765957444" y="246.66666666666669" as="targetPoint" />
          </mxGeometry>
        </mxCell>
        <mxCell id="3CA-7fgf6rY5qHI0OHNV-130" value="" style="endArrow=none;html=1;rounded=0;entryX=0.5;entryY=1;entryDx=0;entryDy=0;exitX=0.5;exitY=0;exitDx=0;exitDy=0;" parent="1" source="3CA-7fgf6rY5qHI0OHNV-126" target="3CA-7fgf6rY5qHI0OHNV-100" edge="1">
          <mxGeometry width="50" height="50" relative="1" as="geometry">
            <mxPoint x="258.04255319148933" y="274.44444444444446" as="sourcePoint" />
            <mxPoint x="295.70212765957444" y="246.66666666666669" as="targetPoint" />
          </mxGeometry>
        </mxCell>
        <mxCell id="3CA-7fgf6rY5qHI0OHNV-131" value="" style="endArrow=none;html=1;rounded=0;entryX=0.5;entryY=1;entryDx=0;entryDy=0;exitX=0.5;exitY=0;exitDx=0;exitDy=0;" parent="1" source="3CA-7fgf6rY5qHI0OHNV-128" target="3CA-7fgf6rY5qHI0OHNV-101" edge="1">
          <mxGeometry width="50" height="50" relative="1" as="geometry">
            <mxPoint x="258.04255319148933" y="274.44444444444446" as="sourcePoint" />
            <mxPoint x="295.70212765957444" y="246.66666666666669" as="targetPoint" />
          </mxGeometry>
        </mxCell>
        <mxCell id="3CA-7fgf6rY5qHI0OHNV-132" value="" style="rounded=0;whiteSpace=wrap;html=1;" parent="1" vertex="1">
          <mxGeometry x="468.93617021276594" y="218.88888888888889" width="15.063829787234042" height="11.11111111111111" as="geometry" />
        </mxCell>
        <mxCell id="3CA-7fgf6rY5qHI0OHNV-133" value="" style="rounded=0;whiteSpace=wrap;html=1;" parent="1" vertex="1">
          <mxGeometry x="446.3404255319149" y="218.88888888888889" width="15.063829787234042" height="11.11111111111111" as="geometry" />
        </mxCell>
        <mxCell id="3CA-7fgf6rY5qHI0OHNV-134" value="" style="endArrow=none;html=1;rounded=0;entryX=0.5;entryY=1;entryDx=0;entryDy=0;exitX=0.5;exitY=0;exitDx=0;exitDy=0;" parent="1" source="3CA-7fgf6rY5qHI0OHNV-133" target="3CA-7fgf6rY5qHI0OHNV-102" edge="1">
          <mxGeometry width="50" height="50" relative="1" as="geometry">
            <mxPoint x="325.82978723404256" y="274.44444444444446" as="sourcePoint" />
            <mxPoint x="363.48936170212767" y="246.66666666666669" as="targetPoint" />
          </mxGeometry>
        </mxCell>
        <mxCell id="3CA-7fgf6rY5qHI0OHNV-135" value="" style="endArrow=none;html=1;rounded=0;entryX=0.5;entryY=1;entryDx=0;entryDy=0;exitX=0.5;exitY=0;exitDx=0;exitDy=0;" parent="1" source="3CA-7fgf6rY5qHI0OHNV-132" target="3CA-7fgf6rY5qHI0OHNV-103" edge="1">
          <mxGeometry width="50" height="50" relative="1" as="geometry">
            <mxPoint x="325.82978723404256" y="274.44444444444446" as="sourcePoint" />
            <mxPoint x="363.48936170212767" y="246.66666666666669" as="targetPoint" />
          </mxGeometry>
        </mxCell>
        <mxCell id="3CA-7fgf6rY5qHI0OHNV-202" value="&lt;font style=&quot;color: rgb(255, 0, 0);&quot; face=&quot;Times New Roman&quot;&gt;3&lt;/font&gt;" style="text;html=1;align=center;verticalAlign=middle;whiteSpace=wrap;rounded=0;" parent="1" vertex="1">
          <mxGeometry x="282.5" y="329" width="23" height="24" as="geometry" />
        </mxCell>
        <mxCell id="3CA-7fgf6rY5qHI0OHNV-204" value="" style="group;fontColor=#00CC00;" parent="1" vertex="1" connectable="0">
          <mxGeometry x="230" y="360" width="190" height="110" as="geometry" />
        </mxCell>
        <mxCell id="3CA-7fgf6rY5qHI0OHNV-192" value="" style="ellipse;whiteSpace=wrap;html=1;strokeWidth=2;" parent="3CA-7fgf6rY5qHI0OHNV-204" vertex="1">
          <mxGeometry x="20" width="90" height="40" as="geometry" />
        </mxCell>
        <mxCell id="3CA-7fgf6rY5qHI0OHNV-191" value="&lt;font face=&quot;Times New Roman&quot;&gt;0x&lt;span style=&quot;background-color: rgb(255, 0, 255);&quot;&gt;3A3&lt;/span&gt;&lt;span style=&quot;background-color: rgb(255, 0, 0);&quot;&gt;F5&lt;/span&gt;, &lt;span style=&quot;background-color: rgb(51, 153, 255);&quot;&gt;0&lt;/span&gt;&lt;/font&gt;" style="text;html=1;align=center;verticalAlign=middle;whiteSpace=wrap;rounded=0;labelBackgroundColor=default;" parent="3CA-7fgf6rY5qHI0OHNV-204" vertex="1">
          <mxGeometry x="27.5" y="5" width="75" height="30" as="geometry" />
        </mxCell>
        <mxCell id="-wpIxYSXXJ65nt1ocidk-3" value="" style="endArrow=classic;html=1;rounded=0;strokeColor=#FF00FF;" edge="1" parent="3CA-7fgf6rY5qHI0OHNV-204">
          <mxGeometry width="50" height="50" relative="1" as="geometry">
            <mxPoint x="50" y="31.5" as="sourcePoint" />
            <mxPoint x="30" y="61.5" as="targetPoint" />
          </mxGeometry>
        </mxCell>
        <mxCell id="-wpIxYSXXJ65nt1ocidk-5" value="" style="endArrow=classic;html=1;rounded=0;strokeColor=#3399FF;" edge="1" parent="3CA-7fgf6rY5qHI0OHNV-204">
          <mxGeometry width="50" height="50" relative="1" as="geometry">
            <mxPoint x="95" y="30" as="sourcePoint" />
            <mxPoint x="125" y="50" as="targetPoint" />
          </mxGeometry>
        </mxCell>
        <mxCell id="-wpIxYSXXJ65nt1ocidk-6" value="&lt;font face=&quot;Times New Roman&quot; style=&quot;color: rgb(255, 0, 255); font-size: 18px;&quot;&gt;version&lt;/font&gt;" style="text;html=1;align=center;verticalAlign=middle;whiteSpace=wrap;rounded=0;fontStyle=3" vertex="1" parent="3CA-7fgf6rY5qHI0OHNV-204">
          <mxGeometry x="-20" y="63" width="60" height="30" as="geometry" />
        </mxCell>
        <mxCell id="-wpIxYSXXJ65nt1ocidk-7" value="&lt;font style=&quot;font-size: 18px;&quot; face=&quot;Times New Roman&quot;&gt;nibblePath&lt;/font&gt;" style="text;html=1;align=center;verticalAlign=middle;whiteSpace=wrap;rounded=0;fontColor=#FF0000;fontStyle=3" vertex="1" parent="3CA-7fgf6rY5qHI0OHNV-204">
          <mxGeometry x="60" y="80" width="60" height="30" as="geometry" />
        </mxCell>
        <mxCell id="-wpIxYSXXJ65nt1ocidk-8" value="&lt;font style=&quot;font-size: 18px; color: rgb(51, 153, 255);&quot; face=&quot;Times New Roman&quot;&gt;value&lt;/font&gt;" style="text;html=1;align=center;verticalAlign=middle;whiteSpace=wrap;rounded=0;fontColor=#00CC00;fontStyle=3" vertex="1" parent="3CA-7fgf6rY5qHI0OHNV-204">
          <mxGeometry x="121" y="40" width="60" height="30" as="geometry" />
        </mxCell>
        <mxCell id="3CA-7fgf6rY5qHI0OHNV-330" value="" style="group;fillColor=default;container=0;" parent="1" vertex="1" connectable="0">
          <mxGeometry x="680" y="145" width="90" height="40" as="geometry" />
        </mxCell>
        <mxCell id="-wpIxYSXXJ65nt1ocidk-1" value="" style="rounded=0;whiteSpace=wrap;html=1;" vertex="1" parent="1">
          <mxGeometry x="130" y="218.89" width="15.063829787234042" height="11.11111111111111" as="geometry" />
        </mxCell>
        <mxCell id="-wpIxYSXXJ65nt1ocidk-2" value="" style="endArrow=none;html=1;rounded=0;entryX=0.5;entryY=1;entryDx=0;entryDy=0;exitX=0.5;exitY=0;exitDx=0;exitDy=0;" edge="1" parent="1" source="-wpIxYSXXJ65nt1ocidk-1" target="3CA-7fgf6rY5qHI0OHNV-88">
          <mxGeometry width="50" height="50" relative="1" as="geometry">
            <mxPoint x="170" y="227" as="sourcePoint" />
            <mxPoint x="215" y="210" as="targetPoint" />
          </mxGeometry>
        </mxCell>
        <mxCell id="-wpIxYSXXJ65nt1ocidk-4" value="" style="endArrow=classic;html=1;rounded=0;strokeColor=#FF0000;fontColor=#FF0000;" edge="1" parent="1">
          <mxGeometry width="50" height="50" relative="1" as="geometry">
            <mxPoint x="305" y="391" as="sourcePoint" />
            <mxPoint x="310" y="440" as="targetPoint" />
          </mxGeometry>
        </mxCell>
        <mxCell id="-wpIxYSXXJ65nt1ocidk-9" value="" style="endArrow=classic;html=1;rounded=0;strokeColor=#FF8000;" edge="1" parent="1">
          <mxGeometry width="50" height="50" relative="1" as="geometry">
            <mxPoint x="430" y="190" as="sourcePoint" />
            <mxPoint x="500" y="170" as="targetPoint" />
          </mxGeometry>
        </mxCell>
        <mxCell id="-wpIxYSXXJ65nt1ocidk-10" value="&lt;font style=&quot;font-size: 18px; color: rgb(255, 128, 0);&quot; face=&quot;Times New Roman&quot;&gt;Internal Node&lt;/font&gt;" style="text;html=1;align=center;verticalAlign=middle;whiteSpace=wrap;rounded=0;fontColor=#00CC00;fontStyle=3" vertex="1" parent="1">
          <mxGeometry x="498.94" y="155" width="60" height="30" as="geometry" />
        </mxCell>
        <mxCell id="3CA-7fgf6rY5qHI0OHNV-267" value="" style="ellipse;whiteSpace=wrap;html=1;strokeWidth=2;fillColor=#80FF00;strokeColor=#82b366;" parent="1" vertex="1">
          <mxGeometry x="680" y="145" width="90" height="40" as="geometry" />
        </mxCell>
        <mxCell id="3CA-7fgf6rY5qHI0OHNV-268" value="&lt;font face=&quot;Times New Roman&quot;&gt;0x&lt;span style=&quot;&quot;&gt;F63&lt;/span&gt;&lt;span style=&quot;&quot;&gt;9D&lt;/span&gt;, &lt;span style=&quot;&quot;&gt;2&lt;/span&gt;&lt;/font&gt;" style="text;html=1;align=center;verticalAlign=middle;whiteSpace=wrap;rounded=0;labelBackgroundColor=default;" parent="1" vertex="1">
          <mxGeometry x="687.5" y="150" width="75" height="30" as="geometry" />
        </mxCell>
        <mxCell id="-wpIxYSXXJ65nt1ocidk-11" value="" style="endArrow=classic;html=1;rounded=0;strokeColor=#80FF00;" edge="1" parent="1">
          <mxGeometry width="50" height="50" relative="1" as="geometry">
            <mxPoint x="750" y="190" as="sourcePoint" />
            <mxPoint x="780" y="230" as="targetPoint" />
          </mxGeometry>
        </mxCell>
        <mxCell id="-wpIxYSXXJ65nt1ocidk-12" value="&lt;font style=&quot;font-size: 18px; color: rgb(102, 204, 0);&quot; face=&quot;Times New Roman&quot;&gt;Leaf Node&lt;/font&gt;" style="text;html=1;align=center;verticalAlign=middle;whiteSpace=wrap;rounded=0;fontColor=#00CC00;fontStyle=3" vertex="1" parent="1">
          <mxGeometry x="762.5" y="235" width="60" height="30" as="geometry" />
        </mxCell>
      </root>
    </mxGraphModel>
  </diagram>
</mxfile>
